<?xml version="1.0" encoding="UTF-8" standalone="no"?><!DOCTYPE svg PUBLIC "-//W3C//DTD SVG 1.1//EN" "http://www.w3.org/Graphics/SVG/1.1/DTD/svg11.dtd">
<svg height="100%"
    xmlns:vectornator="http://vectornator.io" xml:space="preserve" width="100%"
    xmlns="http://www.w3.org/2000/svg"
    xmlns:xlink="http://www.w3.org/1999/xlink" viewBox="0 0 1024 1024" style="fill-rule:nonzero;clip-rule:evenodd;stroke-linecap:round;stroke-linejoin:round;" version="1.1">
    <defs>
        <linearGradient id="LinearGradient" gradientUnits="userSpaceOnUse" x1="0" y2="512" x2="1024" gradientTransform="matrix(1 0 0 1 0 0)" y1="512">
            <stop stop-color="#3498db" offset="0"/>
            <stop offset="1" stop-color="#8e44ad"/>
        </linearGradient>
    </defs>
    <g vectornator:layerName="Layer 1" id="Layer 1">
        <path d="M200-2.55795e-13L824-2.55795e-13C934.457-2.55795e-13+1024+89.543+1024+200L1024+824C1024+934.457+934.457+1024+824+1024L200+1024C89.543+1024+0+934.457+0+824L0+200C0+89.543+89.543-2.55795e-13+200-2.55795e-13Z" opacity="1" fill="url(#LinearGradient)"/>
        <path opacity="1" fill="#ecf0f1" d="M100.631+260.805L254.315+507.201L92.7781+763.195L214.831+763.195L315.723+592.169L411.162+763.195L511.945+763.195L538.668+763.195L614.583+763.195L614.583+566.209L723.002+566.209C753.906+566.209+774.907+571.563+786.155+582.243C797.403+592.923+803.261+614.229+803.716+646.269L804.37+693.061C804.597+707.831+806.115+722.165+808.842+736.254C810.205+743.071+812.532+752.06+815.714+763.195L931.222+763.195L931.222+750.652C921.224+744.516+914.861+734.918+912.134+721.965C910.316+713.785+909.407+698.233+909.407+675.282L909.407+641.579C909.407+606.357+904.558+580.093+894.901+562.937C885.243+545.781+868.887+532.551+845.709+523.235C873.431+513.691+893.219+497.434+905.263+474.37C917.306+451.305+923.369+427.877+923.369+404.018C923.369+384.248+920.242+366.569+913.879+351.117C907.517+335.665+898.827+321.631+887.92+308.906C874.74+293.454+858.684+281.738+839.71+273.785C820.736+265.831+793.672+261.487+758.45+260.805L529.07+260.805L511.945+260.805L407.781+260.805L315.723+424.087L226.065+260.805L100.631+260.805ZM511.945+287.855L511.945+720.657L375.386+503.165L511.945+287.855ZM614.583+348.063L736.636+348.063C759.359+348.063+776.32+350.99+787.682+356.898C807.906+367.351+818.004+387.857+818.004+418.306C818.004+432.395+815.486+444.107+810.26+453.537C810.239+453.576+810.172+453.607+810.151+453.646C804.925+463.008+797.103+470.166+786.7+474.915C780.792+477.642+773.421+479.66+764.558+481.023C755.683+482.387+745.289+483.096+733.473+483.096L614.583+483.096L614.583+348.063Z"/>
    </g>
</svg>
