<svg xmlns="http://www.w3.org/2000/svg" width="546.871" height="546.871" viewBox="0 0 144.693 144.693"><g transform="translate(-71.862 -74.4)"><rect ry="0" y="74.4" x="71.862" height="144.693" width="144.693" fill="#23a8e0" paint-order="stroke fill markers"/><path d="M144.209 186.433a39.688 39.688 0 01-34.37-19.844 39.688 39.688 0 010-39.687 39.688 39.688 0 0134.37-19.844M189.325 107.058v79.375m-40.693-39.679h40.693" fill="none" stroke="#fff" stroke-width="6" stroke-linecap="round"/><path d="M144.209 142.46a4.418 4.418 0 014.42 4.416 4.418 4.418 0 01-4.416 4.42 4.418 4.418 0 01-4.421-4.415 4.418 4.418 0 014.414-4.421" fill="#fff" stroke="#fff" stroke-width="6" stroke-linecap="round"/><path d="M84.678 146.746h19.844" fill="none" stroke="#fff" stroke-width="6" stroke-linecap="round"/></g></svg>