<svg xmlns="http://www.w3.org/2000/svg" viewBox="0 0 1500 1500">
    <defs>
        <linearGradient id="chevere" y1="750" x2="1500" y2="750" gradientUnits="userSpaceOnUse">
            <stop offset="0" stop-color="#3498db"/>
            <stop offset="1" stop-color="#8e44ad"/>
        </linearGradient>
        <style>.cls-1,.cls-2,.cls-3{fill:#fff}.cls-2{fill-opacity:.6}.cls-3{stroke:#0071bc;stroke-miterlimit:10;stroke-width:.25px}.cls-7{fill:#ecf0f1}</style>
    </defs>
    <g id="Capa_1" data-name="Capa 1">
        <rect width="1500" height="1500" rx="365.08"/>
        <path class="cls-1" d="M199 605.06a30 30 0 0 1-30-30V396.38c0-71.9 27.32-139.53 76.92-190.44 49.8-51.12 116.08-79.28 186.62-79.28H618a30 30 0 0 1 0 60H432.54C320.31 186.66 229 280.74 229 396.38v178.68a30 30 0 0 1-30 30Z"/>
        <path class="cls-1" d="M283 521.18a30 30 0 0 1-30-30v-107c0-95.72 76.22-173.6 169.9-173.6H534a30 30 0 0 1 0 60H422.9c-60.6 0-109.9 51-109.9 113.6v107a30 30 0 0 1-30 30ZM873.54 166a30 30 0 0 1 30-30h178.69c71.89 0 139.52 27.32 190.43 76.92 51.13 49.8 79.28 116.08 79.28 186.62V585a30 30 0 0 1-60 0V399.54c0-112.23-94.08-203.54-209.71-203.54H903.54a30 30 0 0 1-30-30Z"/>
        <path class="cls-1" d="M957.42 250a30 30 0 0 1 30-30h107c95.72 0 173.6 76.22 173.6 169.9V501a30 30 0 0 1-60 0V389.9c0-60.6-51-109.9-113.6-109.9h-107a30 30 0 0 1-30-30ZM1313 898.54a30 30 0 0 1 30 30v178.69c0 71.89-27.32 139.52-76.92 190.43-49.8 51.13-116.08 79.28-186.62 79.28H894a30 30 0 0 1 0-60h185.46c112.23 0 203.54-94.08 203.54-209.71V928.54a30 30 0 0 1 30-30Z"/>
        <path class="cls-1" d="M1229 982.42a30 30 0 0 1 30 30v107c0 95.72-76.22 173.6-169.9 173.6H978a30 30 0 0 1 0-60h111.1c60.6 0 109.9-51 109.9-113.6v-107a30 30 0 0 1 30-30ZM638.46 1337.6a30 30 0 0 1-30 30H429.77c-71.89 0-139.52-27.31-190.43-76.91-51.13-49.81-79.28-116.09-79.28-186.63V918.6a30 30 0 0 1 60 0v185.46c0 112.23 94.08 203.54 209.71 203.54h178.69a30 30 0 0 1 30 30Z"/>
        <path class="cls-1" d="M554.58 1253.6a30 30 0 0 1-30 30h-107c-95.72 0-173.6-76.22-173.6-169.9v-111.1a30 30 0 0 1 60 0v111.1c0 60.6 51 109.9 113.6 109.9h107a30 30 0 0 1 30 30ZM1324.1 780H196.9c-15.41 0-27.9-13.43-27.9-30s12.49-30 27.9-30h1127.2c15.41 0 27.9 13.43 27.9 30s-12.49 30-27.9 30Z"/>
        <g id="hori_barras" data-name="hori barras">
            <path class="cls-2" d="M760.96 909.42h97.92V927h-97.92zM760.96 873.76h97.92v16.64h-97.92z"/>
            <path class="cls-2" d="M1001.73 803.84c43.91-18.68 72.69-54.52 72.69-108.53v-1c0-34.82-10.6-62.08-31.3-82.27C1019.4 587.8 982 573.67 928 573.67H761v281.07h97.92V820h42.91L973 927h113ZM980.8 701.37c0 25.74-19.18 41.9-52.49 41.9H863.7v-84.8h64.1c32.81 0 53 14.13 53 41.89Z"/>
            <path class="cls-3" d="m538.15 591.24-11.17-17.57H414.42l11.78 17.57h111.95zM462.86 645.93l72.71 108.44L419.47 927h110.04l63.09-99.44L655.19 927h112.56L651.66 753.36 772.8 573.67H662.76l-68.14 106.5-21.75-34.24H462.86z"/>
            <path class="cls-3" d="M450.11 626.91h110.68l-10.56-16.65H438.95l11.16 16.65z"/>
        </g>
    </g>
    <g id="Capa_5" data-name="Capa 5">
        <rect width="1500" height="1500" rx="365.08" style="fill:url(#chevere)"/>
        <path d="M776.72 433.24h300c97 0 164.08 25.38 206.68 68.89 37.17 36.26 56.21 85.21 56.21 147.76v1.82c0 97-51.67 161.35-130.54 194.89l151.39 221.19h-203.01l-127.82-192.18h-77.05v192.18H776.72Zm291.89 304.58c59.83 0 94.28-29 94.28-75.24v-1.81c0-49.86-36.26-75.24-95.18-75.24H952.58v152.29Z" style="opacity:.9;fill:#ecf0f1"/>
        <path class="cls-7" d="M354.82 745.07 571.93 433h195.59L561.17 743.26 776.49 1068H576.42Z" style="opacity:.75"/>
        <path class="cls-7" d="M354.82 745.07 148.47 433h200.07l212.63 310.26L335.08 1068H139.49Z"/>
    </g>
</svg>