<svg xmlns="http://www.w3.org/2000/svg" viewBox="0 0 1500 1500">
    <defs>
        <linearGradient id="chevere" y1="750" x2="1500" y2="750" gradientUnits="userSpaceOnUse">
            <stop offset="0" stop-color="#3498db"/>
            <stop offset="1" stop-color="#8e44ad"/>
        </linearGradient>
    </defs>
    <g id="XR" data-name="XR">
        <rect width="1500" height="1500" rx="365.08" style="fill:url(#chevere)"/>
        <path d="M776.72 433.24h300c97 0 164.08 25.38 206.68 68.89 37.17 36.26 56.21 85.21 56.21 147.76v1.82c0 97-51.67 161.35-130.54 194.89l151.39 221.19h-203.01l-127.82-192.18h-77.05v192.18H776.72Zm291.89 304.58c59.83 0 94.28-29 94.28-75.24v-1.81c0-49.86-36.26-75.24-95.18-75.24H952.58v152.29Z" style="opacity:.9;fill:#ecf0f1"/>
        <path d="M354.82 745.07 571.93 433h195.59L561.17 743.26 776.49 1068H576.42Z" style="fill:#ecf0f1; opacity:.75"/>
        <path d="M354.82 745.07 148.47 433h200.07l212.63 310.26L335.08 1068H139.49Z" style="fill:#ecf0f1;"/>
    </g>
</svg>